<svg xmlns="http://www.w3.org/2000/svg" xmlns:xlink="http://www.w3.org/1999/xlink" width="500" zoomAndPan="magnify" viewBox="0 0 375 140.249994" height="187" preserveAspectRatio="xMidYMid meet" version="1.0"><defs><g/><clipPath id="431e0f29a7"><path d="M 344.816406 49.234375 L 373.847656 49.234375 L 373.847656 107.300781 L 344.816406 107.300781 Z M 344.816406 49.234375 " clip-rule="nonzero"/></clipPath><clipPath id="141b1ed3f0"><path d="M 312.070312 48.335938 L 341.8125 48.335938 L 341.8125 107.816406 L 312.070312 107.816406 Z M 312.070312 48.335938 " clip-rule="nonzero"/></clipPath></defs><g fill="#ffffff" fill-opacity="1"><g transform="translate(0.997348, 107.28209)"><g><path d="M 1.21875 -84.78125 L 19.625 -84.78125 L 39.734375 -14.046875 L 40.21875 -8.234375 L 40.703125 -14.046875 L 60.8125 -84.78125 L 79.21875 -84.78125 L 53.296875 0 L 27.125 0 Z M 1.21875 -84.78125 "/></g></g></g><g fill="#ffffff" fill-opacity="1"><g transform="translate(81.17769, 107.28209)"><g><path d="M 35.375 -47.71875 C 30.769531 -47.71875 27.273438 -46.179688 24.890625 -43.109375 C 22.503906 -40.046875 21.3125 -35.769531 21.3125 -30.28125 C 21.3125 -24.875 22.503906 -20.613281 24.890625 -17.5 C 27.273438 -14.394531 30.769531 -12.84375 35.375 -12.84375 C 39.894531 -12.84375 43.363281 -14.394531 45.78125 -17.5 C 48.207031 -20.613281 49.421875 -24.875 49.421875 -30.28125 C 49.421875 -35.769531 48.207031 -40.046875 45.78125 -43.109375 C 43.363281 -46.179688 39.894531 -47.71875 35.375 -47.71875 Z M 35.375 -61.78125 C 41.582031 -61.78125 46.96875 -60.484375 51.53125 -57.890625 C 56.09375 -55.304688 59.625 -51.648438 62.125 -46.921875 C 64.632812 -42.203125 65.890625 -36.65625 65.890625 -30.28125 C 65.890625 -23.820312 64.632812 -18.226562 62.125 -13.5 C 59.625 -8.78125 56.09375 -5.144531 51.53125 -2.59375 C 46.96875 -0.0507812 41.582031 1.21875 35.375 1.21875 C 29.15625 1.21875 23.765625 -0.0703125 19.203125 -2.65625 C 14.640625 -5.25 11.101562 -8.90625 8.59375 -13.625 C 6.09375 -18.351562 4.84375 -23.90625 4.84375 -30.28125 C 4.84375 -36.65625 6.09375 -42.203125 8.59375 -46.921875 C 11.101562 -51.648438 14.640625 -55.304688 19.203125 -57.890625 C 23.765625 -60.484375 29.15625 -61.78125 35.375 -61.78125 Z M 35.375 -61.78125 "/></g></g></g><g fill="#ffffff" fill-opacity="1"><g transform="translate(151.668559, 107.28209)"><g><path d="M 49.90625 -60.5625 L 49.90625 -46.265625 L 23.25 -46.265625 L 23.25 0 L 7.03125 0 L 7.03125 -60.5625 Z M 49.90625 -60.5625 "/></g></g></g><g fill="#ffffff" fill-opacity="1"><g transform="translate(202.538263, 107.28209)"><g><path d="M 9.453125 -78.734375 L 25.671875 -78.734375 L 25.671875 -60.5625 L 38.28125 -60.5625 L 38.28125 -46.265625 L 25.671875 -46.265625 L 25.671875 -19.625 C 25.671875 -18.164062 26.234375 -16.910156 27.359375 -15.859375 C 28.492188 -14.816406 29.789062 -14.296875 31.25 -14.296875 L 38.28125 -14.296875 L 38.28125 0 L 25.4375 0 C 22.445312 0 19.738281 -0.703125 17.3125 -2.109375 C 14.894531 -3.523438 12.976562 -5.441406 11.5625 -7.859375 C 10.15625 -10.285156 9.453125 -12.992188 9.453125 -15.984375 L 9.453125 -46.265625 L 1.21875 -46.265625 L 1.21875 -60.5625 L 9.453125 -60.5625 Z M 9.453125 -78.734375 "/></g></g></g><g fill="#ffffff" fill-opacity="1"><g transform="translate(241.538373, 107.28209)"><g><path d="M 58.625 0 L 35.375 0 C 29.226562 0 23.875 -1.25 19.3125 -3.75 C 14.75 -6.257812 11.195312 -9.832031 8.65625 -14.46875 C 6.113281 -19.113281 4.84375 -24.628906 4.84375 -31.015625 C 4.84375 -37.222656 6.09375 -42.628906 8.59375 -47.234375 C 11.101562 -51.835938 14.640625 -55.410156 19.203125 -57.953125 C 23.765625 -60.503906 29.15625 -61.78125 35.375 -61.78125 C 41.582031 -61.78125 46.96875 -60.503906 51.53125 -57.953125 C 56.09375 -55.410156 59.625 -51.835938 62.125 -47.234375 C 64.632812 -42.628906 65.890625 -37.222656 65.890625 -31.015625 C 65.890625 -30.035156 65.847656 -29.082031 65.765625 -28.15625 C 65.691406 -27.226562 65.570312 -26.320312 65.40625 -25.4375 L 21.921875 -25.4375 C 23.773438 -16.550781 29.710938 -12.109375 39.734375 -12.109375 L 58.625 -12.109375 Z M 49.171875 -35.609375 C 48.609375 -40.128906 47.132812 -43.640625 44.75 -46.140625 C 42.375 -48.648438 39.25 -49.90625 35.375 -49.90625 C 31.414062 -49.90625 28.242188 -48.648438 25.859375 -46.140625 C 23.472656 -43.640625 22.039062 -40.128906 21.5625 -35.609375 Z M 49.171875 -35.609375 "/></g></g></g><g clip-path="url(#431e0f29a7)"><path fill="#ffffff" d="M 373.992188 90.726562 L 373.992188 107.292969 C 357.882812 107.292969 344.816406 94.226562 344.816406 78.117188 C 344.816406 62.007812 357.882812 48.941406 373.992188 48.941406 L 373.992188 65.496094 C 367.0625 65.53125 361.453125 71.175781 361.453125 78.117188 C 361.453125 85.0625 367.0625 90.691406 373.992188 90.726562 Z M 373.992188 90.726562 " fill-opacity="1" fill-rule="nonzero"/></g><g clip-path="url(#141b1ed3f0)"><path fill="#ffffff" d="M 312.027344 65.25 L 312.027344 48.335938 C 328.472656 48.335938 341.8125 61.675781 341.8125 78.121094 C 341.8125 94.566406 328.472656 107.90625 312.027344 107.90625 L 312.027344 91.003906 C 319.101562 90.96875 324.828125 85.207031 324.828125 78.121094 C 324.828125 71.035156 319.101562 65.285156 312.027344 65.25 Z M 312.027344 65.25 " fill-opacity="1" fill-rule="nonzero"/></g></svg>